# xmcd
#
# Track frame offsets: 
#        150
#        17282
#        38038
#        56768
#        79558
#        96862
#        119293
#        137543
#        154810
#        171983
#        187447
#        203329
#
# Disc length: 2935 seconds
#
# Revision: 1
# Processed by: cddbd v1.5.2PL0 Copyright (c) Steve Scherf et al.
# Submitted via: ExactAudioCopy v0.99pb3
#
DISCID=960b750c
DTITLE=Blue Cantrell - Bittersweat
DYEAR=1900
DGENRE=Blues
TTITLE0=I Love You
TTITLE1=Sleep In The Middle
TTITLE2=Unhappy
TTITLE3=Impatient Ft. Lil Kim and Fat Jo
TTITLE4=Breathe Ft. Sean Paul
TTITLE5=Risk It All
TTITLE6=Don't Wanna Say Goodbye
TTITLE7=Happily Ever After
TTITLE8=Holding On To Love
TTITLE9=Let Her Go
TTITLE10=Make Me Wanna Scream Ft. Ian L
TTITLE11=No Place Like Home
EXTD=
EXTT0=
EXTT1=
EXTT2=
EXTT3=
EXTT4=
EXTT5=
EXTT6=
EXTT7=
EXTT8=
EXTT9=
EXTT10=
EXTT11=
PLAYORDER=
